<?xml version="1.0" standalone="no"?>
<!DOCTYPE svg PUBLIC "-//W3C//DTD SVG 20010904//EN"
 "http://www.w3.org/TR/2001/REC-SVG-20010904/DTD/svg10.dtd">
<svg version="1.0" xmlns="http://www.w3.org/2000/svg"
 width="800.000000pt" height="800.000000pt" viewBox="0 0 800.000000 800.000000"
 preserveAspectRatio="xMidYMid meet">

<g transform="translate(0.000000,800.000000) scale(0.100000,-0.100000)"
fill="#0ecc00" stroke="none">
<path d="M2355 5661 c-51 -23 -103 -75 -123 -121 -11 -25 -17 -98 -23 -265 -4
-126 -15 -347 -24 -490 -12 -183 -16 -361 -13 -600 8 -864 3 -1113 -31 -1530
-37 -458 -49 -789 -32 -853 15 -52 70 -116 125 -144 84 -43 199 -23 270 48 54
54 58 74 72 309 8 121 25 337 40 480 14 143 31 347 38 454 l11 194 530 104
c610 119 807 154 1030 182 171 22 388 41 466 41 l48 0 0 -292 c0 -173 6 -391
16 -533 9 -132 22 -352 29 -490 11 -221 15 -255 34 -291 90 -174 341 -168 423
11 26 56 25 249 -3 625 -33 452 -30 820 10 1300 45 543 45 545 46 1015 2 414
3 433 24 500 46 146 16 248 -94 316 -43 26 -118 39 -161 27 -85 -23 -162 -141
-207 -318 -37 -147 -46 -252 -46 -560 0 -280 -15 -750 -26 -801 l-5 -26 -152
-6 c-302 -13 -550 -49 -1317 -192 -278 -51 -539 -100 -581 -108 l-76 -13 -6
225 c-11 374 -8 605 14 953 11 183 21 414 22 513 2 159 0 184 -17 218 -42 86
-123 137 -216 137 -32 0 -72 -8 -95 -19z"/>
</g>
</svg>
