<?xml version="1.0" standalone="no"?>
<!DOCTYPE svg PUBLIC "-//W3C//DTD SVG 20010904//EN"
 "http://www.w3.org/TR/2001/REC-SVG-20010904/DTD/svg10.dtd">
<svg version="1.0" xmlns="http://www.w3.org/2000/svg"
 width="256.000000pt" height="256.000000pt" viewBox="0 0 256.000000 256.000000"
 preserveAspectRatio="xMidYMid meet">
<metadata>
Created by potrace 1.16, written by Peter Selinger 2001-2019
</metadata>
<g transform="translate(0.000000,256.000000) scale(0.100000,-0.100000)"
fill="#000000" stroke="none">
<path d="M0 1280 l0 -1280 140 0 c77 0 140 3 140 7 0 4 -26 33 -57 65 l-56 57
-59 -54 c-57 -53 -78 -65 -78 -46 0 6 25 36 55 69 l55 59 -65 62 c-36 35 -65
69 -65 76 0 8 24 36 53 64 43 41 53 47 58 33 5 -12 -6 -30 -32 -57 l-39 -41
40 -39 c21 -21 37 -42 34 -47 -7 -12 82 -101 94 -94 5 3 26 -13 47 -34 37 -38
39 -39 58 -22 20 17 20 16 14 -21 l-6 -37 115 0 c69 0 114 4 114 10 0 6 11 10
25 10 14 0 25 -4 25 -10 0 -15 216 -13 240 2 16 10 24 10 40 0 24 -15 240 -17
240 -2 0 6 11 10 25 10 14 0 25 -4 25 -10 0 -6 45 -10 115 -10 70 0 115 4 115
10 0 6 11 10 25 10 14 0 25 -4 25 -10 0 -6 45 -10 115 -10 70 0 115 4 115 10
0 6 11 10 25 10 14 0 25 -4 25 -10 0 -6 47 -10 120 -10 73 0 120 4 120 10 0 6
9 10 20 10 11 0 20 -4 20 -10 0 -6 47 -10 120 -10 66 0 120 4 120 8 0 5 -9 17
-20 27 -11 10 -20 27 -20 38 0 19 3 18 30 -8 16 -16 32 -27 35 -24 2 2 61 60
130 129 l125 124 -48 51 c-32 33 -47 56 -44 69 3 15 13 10 58 -35 l54 -53 0
114 0 114 -54 -53 c-39 -38 -55 -49 -59 -38 -3 9 14 33 44 63 l49 48 -47 48
c-39 40 -64 88 -44 88 3 0 29 -23 58 -52 l53 -52 0 114 0 114 -54 -53 c-47
-47 -54 -50 -59 -32 -4 15 8 32 44 66 l48 45 -48 45 c-36 34 -48 51 -44 66 5
18 12 15 59 -32 l54 -53 0 114 0 114 -54 -53 c-47 -46 -54 -50 -58 -33 -4 15
8 33 43 68 l49 48 -49 51 c-68 70 -55 93 15 24 l54 -53 0 117 0 118 -53 -57
c-48 -51 -54 -55 -59 -37 -4 16 7 33 43 69 l49 48 -49 51 c-36 37 -47 55 -42
69 6 16 14 10 59 -39 l52 -57 0 118 0 118 -54 -53 c-70 -69 -83 -46 -15 24
l49 51 -49 48 c-35 35 -47 53 -43 68 4 17 11 13 58 -33 l54 -53 0 114 0 114
-54 -53 c-47 -47 -54 -50 -59 -32 -4 15 7 32 43 65 l49 46 -50 47 c-38 36 -48
53 -43 66 6 16 14 11 60 -34 l54 -53 0 114 0 114 -54 -53 c-47 -46 -54 -50
-58 -33 -4 15 8 33 41 66 l47 47 -128 126 -128 127 -43 -40 c-27 -26 -49 -39
-61 -36 -15 3 -10 13 35 58 l53 54 -126 0 -126 0 55 -53 c50 -48 54 -55 35
-59 -15 -4 -32 6 -63 38 l-43 44 -46 -45 c-29 -29 -49 -42 -58 -36 -9 5 3 22
42 59 l55 52 -129 0 -129 0 55 -52 c47 -44 53 -53 37 -59 -13 -5 -30 5 -64 37
-45 44 -45 45 -64 24 -14 -16 -21 -17 -32 -8 -12 9 -9 15 14 34 l28 23 -128 1
c-83 0 -126 -4 -122 -10 4 -6 -7 -10 -27 -10 -25 0 -29 3 -18 10 10 7 -27 10
-113 10 -83 0 -126 -4 -122 -10 4 -6 -7 -10 -27 -10 -25 0 -29 3 -18 10 10 7
-29 10 -120 10 -91 0 -130 -3 -120 -10 11 -7 6 -10 -20 -10 -26 0 -31 3 -20
10 10 7 -29 10 -120 10 -91 0 -130 -3 -120 -10 11 -7 7 -10 -18 -10 -20 0 -31
4 -27 10 4 6 -39 10 -122 9 -70 0 -122 -3 -115 -6 6 -2 12 -17 12 -31 0 -25
-1 -25 -17 -10 -15 16 -21 12 -88 -50 -39 -37 -98 -95 -130 -130 l-58 -63 36
-37 c21 -21 37 -46 37 -57 0 -15 -10 -9 -48 28 -27 26 -51 44 -55 41 -4 -4 -7
8 -7 26 0 18 2 31 5 28 3 -3 32 22 64 55 l59 61 -55 60 c-31 33 -51 62 -44 64
6 2 37 -19 69 -46 l57 -50 64 59 64 59 -147 0 -146 0 0 -1280z"/>
<path d="M2357 2498 l63 -62 42 40 c60 57 75 67 82 55 3 -5 -17 -35 -46 -66
l-51 -56 56 -57 57 -57 0 133 0 132 -132 0 -133 0 62 -62z"/>
<path d="M2504 212 l-52 -57 49 -55 c26 -30 49 -58 49 -62 0 -19 -25 -4 -73
41 l-52 50 -63 -61 c-34 -33 -62 -62 -62 -64 0 -2 59 -4 130 -4 l130 0 0 135
c0 74 -1 135 -2 134 -2 0 -26 -26 -54 -57z"/>
</g>
</svg>
