<svg width="512" height="512" viewBox="0 0 512 512" fill="none" xmlns="http://www.w3.org/2000/svg">
<rect width="512" height="512" fill="white"/>
<path fill-rule="evenodd" clip-rule="evenodd" d="M40 472H471V41.0001H40V472ZM186.927 217.2L186.956 94H242V406H188.085C176.33 366.028 149.499 273.165 149.499 273.165L149 406.033L95.5 405.5L94.994 94H148.92L186.927 217.2ZM414.5 382.5C414.5 395 403 405.5 389.5 405.5H293.5C280 405.5 268.601 393 268.5 380.5C268.437 372.705 268.704 307 268.704 307L321.503 295C322.285 295 322 345.063 322 351H361V168H415.035L414.5 382.5Z" fill="#1E5A1E"/>
</svg>
