<?xml version="1.0" standalone="no"?>

<svg version="1.0" xmlns="http://www.w3.org/2000/svg"
 width="280.000000pt" height="280.000000pt" viewBox="0 0 280.000000 280.000000"
 preserveAspectRatio="xMidYMid meet">

<g transform="translate(0.000000,280.000000) scale(0.100000,-0.100000)"
fill="#ff0000" stroke="none">
<path d="M1505 2665 c-96 -24 -207 -76 -295 -136 -33 -22 -288 -187 -430 -277
-140 -89 -169 -110 -223 -167 -73 -75 -132 -173 -166 -279 -22 -70 -26 -98
-25 -206 0 -116 3 -133 36 -230 l35 -104 -38 -81 c-40 -85 -69 -216 -69 -309
2 -270 174 -540 425 -668 28 -14 88 -38 135 -54 78 -26 97 -28 230 -28 137 0
150 2 232 31 89 32 153 68 313 173 50 33 106 69 125 80 19 11 61 37 92 58 32
20 108 69 170 109 212 135 300 245 354 440 42 155 28 345 -37 480 -20 42 -20
43 -2 70 30 44 71 152 84 221 7 38 10 108 7 175 -6 130 -31 214 -99 332 -38
66 -138 182 -194 225 -78 60 -223 126 -325 149 -63 14 -275 12 -335 -4z m287
-276 c176 -38 336 -196 369 -367 13 -68 9 -153 -11 -218 l-12 -41 -65 43 c-35
23 -100 57 -144 75 -70 29 -79 36 -79 58 0 38 -32 93 -70 119 -59 40 -104 31
-220 -43 -19 -13 -75 -49 -125 -80 -49 -32 -121 -78 -160 -103 -38 -24 -99
-64 -135 -87 -36 -23 -80 -51 -97 -61 -42 -23 -67 -75 -60 -121 12 -72 60
-114 130 -115 48 -1 60 4 240 119 208 131 355 146 535 54 51 -26 136 -103 173
-158 44 -63 79 -174 79 -248 0 -106 -52 -229 -128 -303 -23 -22 -211 -151
-242 -165 -8 -4 -41 -24 -72 -45 -32 -20 -96 -62 -143 -92 -316 -202 -298
-194 -455 -195 -123 0 -126 1 -200 36 -168 81 -270 236 -270 411 0 65 14 162
26 176 1 2 31 -15 66 -39 35 -23 99 -57 143 -75 79 -32 80 -32 86 -73 7 -51
35 -91 80 -113 66 -33 70 -31 327 131 328 208 419 269 436 293 39 56 6 157
-61 185 -56 23 -103 12 -191 -46 -221 -143 -287 -171 -413 -171 -197 0 -369
120 -446 313 -61 153 -14 347 111 460 32 28 48 39 208 142 51 32 132 84 180
115 48 30 126 80 175 111 113 72 185 108 237 119 61 12 138 11 198 -1z"/>
</g>
</svg>
