<?xml version="1.0" standalone="no"?>
<!DOCTYPE svg PUBLIC "-//W3C//DTD SVG 20010904//EN"
 "http://www.w3.org/TR/2001/REC-SVG-20010904/DTD/svg10.dtd">
<svg version="1.0" xmlns="http://www.w3.org/2000/svg"
 width="1200.000000pt" height="1200.000000pt" viewBox="0 0 1200.000000 1200.000000"
 preserveAspectRatio="xMidYMid meet">

<g transform="translate(0.000000,1200.000000) scale(0.100000,-0.100000)"
fill="#4461e3" stroke="none">
<path d="M995 11993 c-129 -18 -307 -82 -425 -153 -275 -165 -457 -412 -544
-735 l-21 -80 0 -5025 0 -5025 22 -81 c119 -444 423 -748 867 -867 l81 -22
5025 0 5025 0 81 22 c444 119 748 423 867 867 l22 81 0 5025 0 5025 -22 81
c-52 193 -132 350 -252 490 -154 181 -353 304 -610 377 l-76 22 -5005 1
c-2753 1 -5018 -1 -5035 -3z m8795 -5563 c350 -22 590 -64 863 -151 l127 -41
0 -554 c0 -305 -2 -554 -5 -554 -3 0 -31 18 -63 39 -140 95 -373 191 -612 251
-219 56 -294 64 -565 65 -273 0 -338 -8 -503 -64 -330 -113 -475 -390 -342
-651 31 -61 148 -179 247 -249 144 -102 253 -157 672 -338 505 -217 811 -407
1037 -645 176 -186 282 -401 330 -673 21 -123 24 -422 5 -540 -40 -249 -132
-502 -241 -659 -60 -87 -205 -230 -305 -301 -372 -265 -1026 -404 -1723 -367
-498 27 -860 101 -1189 244 l-93 40 0 563 c0 549 0 562 -20 580 -11 10 -20 22
-20 27 0 4 9 8 20 8 13 0 20 -7 20 -18 0 -25 27 -48 157 -135 275 -183 618
-315 950 -363 141 -21 459 -24 573 -6 179 30 311 76 422 149 129 85 189 189
196 341 15 330 -208 527 -963 852 -214 92 -464 218 -604 305 -438 271 -681
610 -747 1040 -22 139 -14 463 14 590 94 428 380 776 808 985 378 184 943 268
1554 230z m-2830 -605 l0 -485 -750 0 -750 0 0 -2145 0 -2145 -600 0 -600 0 0
2145 0 2145 -750 0 -750 0 0 485 0 485 2100 0 2100 0 0 -485z"/>
</g>
</svg>
